<svg width="59" height="58" viewBox="0 0 59 58" fill="none" xmlns="http://www.w3.org/2000/svg">
<rect x="0.616394" y="0.400269" width="57.601" height="57.601" rx="28.8005" fill="#FFF4F0"/>
<path d="M38.187 36.7309C38.187 37.0909 38.107 37.4609 37.937 37.8209C37.767 38.1809 37.547 38.5209 37.257 38.8409C36.767 39.3809 36.227 39.7709 35.6169 40.0209C35.0169 40.271 34.3669 40.401 33.6669 40.401C32.6469 40.401 31.5569 40.161 30.4069 39.6709C29.2568 39.1809 28.1068 38.5209 26.9668 37.6909C25.8168 36.8509 24.7268 35.9209 23.6867 34.8909C22.6567 33.8508 21.7267 32.7608 20.8967 31.6208C20.0767 30.4808 19.4167 29.3408 18.9367 28.2107C18.4566 27.0707 18.2166 25.9807 18.2166 24.9407C18.2166 24.2607 18.3366 23.6107 18.5767 23.0107C18.8167 22.4006 19.1967 21.8406 19.7267 21.3406C20.3667 20.7106 21.0667 20.4006 21.8067 20.4006C22.0867 20.4006 22.3667 20.4606 22.6167 20.5806C22.8767 20.7006 23.1067 20.8806 23.2867 21.1406L25.6068 24.4107C25.7868 24.6607 25.9168 24.8907 26.0068 25.1107C26.0968 25.3207 26.1468 25.5307 26.1468 25.7207C26.1468 25.9607 26.0768 26.2007 25.9368 26.4307C25.8068 26.6607 25.6168 26.9007 25.3768 27.1407L24.6168 27.9307C24.5068 28.0407 24.4568 28.1707 24.4568 28.3307C24.4568 28.4107 24.4668 28.4807 24.4868 28.5607C24.5168 28.6407 24.5468 28.7007 24.5668 28.7608C24.7468 29.0908 25.0568 29.5208 25.4968 30.0408C25.9468 30.5608 26.4268 31.0908 26.9468 31.6208C27.4868 32.1508 28.0068 32.6408 28.5368 33.0908C29.0568 33.5308 29.4868 33.8308 29.8268 34.0108C29.8768 34.0308 29.9368 34.0608 30.0069 34.0908C30.0869 34.1208 30.1669 34.1308 30.2569 34.1308C30.4269 34.1308 30.5569 34.0708 30.6669 33.9608L31.4269 33.2108C31.6769 32.9608 31.9169 32.7708 32.1469 32.6508C32.3769 32.5108 32.6069 32.4408 32.8569 32.4408C33.0469 32.4408 33.2469 32.4808 33.4669 32.5708C33.6869 32.6608 33.9169 32.7908 34.1669 32.9608L37.477 35.3109C37.737 35.4909 37.917 35.7009 38.027 35.9509C38.127 36.2009 38.187 36.4509 38.187 36.7309Z" stroke="#FF5F2D" stroke-width="1.44003" stroke-miterlimit="10"/>
<path d="M34.717 27.4008C34.717 26.8008 34.247 25.8808 33.547 25.1308C32.907 24.4408 32.057 23.9008 31.2169 23.9008" stroke="#FF5F2D" stroke-width="1.44003" stroke-linecap="round" stroke-linejoin="round"/>
<path d="M38.2171 27.4007C38.2171 23.5307 35.087 20.4006 31.2169 20.4006" stroke="#FF5F2D" stroke-width="1.44003" stroke-linecap="round" stroke-linejoin="round"/>
</svg>
