<svg width="78" height="78" viewBox="0 0 78 78" fill="none" xmlns="http://www.w3.org/2000/svg">
<path d="M38.9999 20.8442C35.2125 20.8486 31.5814 22.3552 28.9033 25.0333C26.2252 27.7114 24.7187 31.3424 24.7142 35.1299C24.7097 38.225 25.7207 41.2361 27.5921 43.7013C27.5921 43.7013 27.9817 44.2143 28.0454 44.2883L38.9999 57.2078L49.9596 44.2818C50.0168 44.213 50.4077 43.7013 50.4077 43.7013L50.409 43.6974C52.2795 41.2333 53.29 38.2235 53.2856 35.1299C53.2811 31.3424 51.7746 27.7114 49.0965 25.0333C46.4183 22.3552 42.7873 20.8486 38.9999 20.8442ZM38.9999 40.3247C37.9725 40.3247 36.9681 40.02 36.1138 39.4492C35.2595 38.8784 34.5937 38.0671 34.2005 37.1178C33.8073 36.1686 33.7045 35.1241 33.9049 34.1164C34.1053 33.1087 34.6001 32.1831 35.3266 31.4566C36.0531 30.7301 36.9787 30.2353 37.9864 30.0349C38.9941 29.8345 40.0386 29.9373 40.9879 30.3305C41.9371 30.7237 42.7484 31.3895 43.3192 32.2438C43.89 33.0981 44.1947 34.1024 44.1947 35.1299C44.193 36.5071 43.6451 37.8274 42.6713 38.8013C41.6974 39.7751 40.3771 40.323 38.9999 40.3247Z" fill="#FF5F2D"/>
</svg>
