<svg width="21" height="22" viewBox="0 0 21 22" fill="none" xmlns="http://www.w3.org/2000/svg">
<path d="M18.3414 6.90201H2.64159C2.28398 6.90201 1.98743 6.60546 1.98743 6.24785C1.98743 5.89024 2.28398 5.59369 2.64159 5.59369H18.3414C18.699 5.59369 18.9956 5.89024 18.9956 6.24785C18.9956 6.60546 18.699 6.90201 18.3414 6.90201Z" fill="black"/>
<path d="M18.3414 11.2631H2.64159C2.28398 11.2631 1.98743 10.9665 1.98743 10.6089C1.98743 10.2513 2.28398 9.95477 2.64159 9.95477H18.3414C18.699 9.95477 18.9956 10.2513 18.9956 10.6089C18.9956 10.9665 18.699 11.2631 18.3414 11.2631Z" fill="black"/>
<path d="M18.3414 15.6242H2.64159C2.28398 15.6242 1.98743 15.3276 1.98743 14.97C1.98743 14.6124 2.28398 14.3159 2.64159 14.3159H18.3414C18.699 14.3159 18.9956 14.6124 18.9956 14.97C18.9956 15.3276 18.699 15.6242 18.3414 15.6242Z" fill="black"/>
</svg>
