<svg width="25" height="32" viewBox="0 0 25 32" fill="none" xmlns="http://www.w3.org/2000/svg">
<path d="M18.6177 15.7007C18.6177 14.1094 17.9855 12.5833 16.8603 11.4581C15.7351 10.3329 14.209 9.70074 12.6177 9.70074C11.0264 9.70074 9.50025 10.3329 8.37504 11.4581C7.24982 12.5833 6.61768 14.1094 6.61768 15.7007C6.61768 22.7007 3.61768 24.7007 3.61768 24.7007H21.6177C21.6177 24.7007 18.6177 22.7007 18.6177 15.7007Z" stroke="#808080" stroke-width="2" stroke-linecap="round" stroke-linejoin="round"/>
<path d="M14.3477 28.7007C14.1719 29.0038 13.9195 29.2554 13.6159 29.4303C13.3123 29.6052 12.9681 29.6972 12.6177 29.6972C12.2673 29.6972 11.9231 29.6052 11.6195 29.4303C11.3159 29.2554 11.0635 29.0038 10.8877 28.7007" stroke="#808080" stroke-width="2" stroke-linecap="round" stroke-linejoin="round"/>
<circle cx="17.1177" cy="8.20074" r="7.5" fill="#1682FD"/>
</svg>
