<svg width="68" height="68" viewBox="0 0 68 68" fill="none" xmlns="http://www.w3.org/2000/svg">
<path d="M48.5072 41.466C48.2525 43.4018 47.3018 45.1787 45.8328 46.4648C44.3637 47.7508 42.4767 48.4582 40.5242 48.4547C29.1812 48.4547 19.9525 39.226 19.9525 27.8829C19.949 25.9304 20.6563 24.0434 21.9424 22.5744C23.2285 21.1053 25.0054 20.1546 26.9412 19.8999C27.4307 19.8401 27.9264 19.9403 28.3543 20.1854C28.7822 20.4305 29.1194 20.8074 29.3155 21.2599L32.3327 27.9958V28.0129C32.4828 28.3593 32.5448 28.7374 32.5131 29.1136C32.4815 29.4898 32.3572 29.8523 32.1512 30.1687C32.1255 30.2072 32.0984 30.2429 32.0698 30.2787L29.0955 33.8044C30.1655 35.9788 32.4398 38.2331 34.6427 39.306L38.1199 36.3473C38.1541 36.3186 38.1898 36.2919 38.2271 36.2673C38.5432 36.0565 38.9069 35.9278 39.2853 35.8928C39.6637 35.8579 40.0449 35.9179 40.3942 36.0673L40.4128 36.0759L47.1429 39.0917C47.5962 39.2871 47.9741 39.6239 48.22 40.0519C48.4659 40.4799 48.5667 40.976 48.5072 41.466Z" fill="#FF5F2D"/>
</svg>
