<svg width="69" height="65" viewBox="0 0 69 65" fill="none" xmlns="http://www.w3.org/2000/svg">
<path d="M20.2987 24.3492C20.2987 23.5073 20.6332 22.6998 21.2285 22.1044C21.8239 21.5091 22.6314 21.1746 23.4733 21.1746H45.6955C46.5375 21.1746 47.345 21.5091 47.9403 22.1044C48.5357 22.6998 48.8701 23.5073 48.8701 24.3492V40.2222C48.8701 41.0642 48.5357 41.8717 47.9403 42.467C47.345 43.0624 46.5375 43.3968 45.6955 43.3968H23.4733C22.6314 43.3968 21.8239 43.0624 21.2285 42.467C20.6332 41.8717 20.2987 41.0642 20.2987 40.2222V24.3492Z" stroke="#FF5F2D" stroke-width="3.23232" stroke-linecap="round" stroke-linejoin="round"/>
<path d="M20.2986 24.3492L34.5844 33.873L48.8701 24.3492" stroke="#FF5F2D" stroke-width="3.23232" stroke-linecap="round" stroke-linejoin="round"/>
</svg>
